<?xml version="1.0" encoding="utf-8"?>
<!-- Generator: Adobe Illustrator 16.0.4, SVG Export Plug-In . SVG Version: 6.00 Build 0)  -->
<!DOCTYPE svg PUBLIC "-//W3C//DTD SVG 1.1//EN" "http://www.w3.org/Graphics/SVG/1.1/DTD/svg11.dtd">
<svg version="1.1" id="Layer_1" xmlns="http://www.w3.org/2000/svg" xmlns:xlink="http://www.w3.org/1999/xlink" x="0px" y="0px"
	 width="360px" height="288px" viewBox="0 0 360 288" enable-background="new 0 0 360 288" xml:space="preserve">
<path fill="#23B0E6" d="M312.977,133.255c-2.754,0-5.266,1.039-7.176,2.737l-62.807-40.917c0.334-1.039,0.516-2.148,0.516-3.3
	c0-5.981-4.854-10.835-10.836-10.835c-3.482,0-6.578,1.654-8.564,4.212L191.037,71.55c0.047-0.436,0.088-0.873,0.088-1.32
	c0-5.983-4.855-10.835-10.836-10.835c-5.982,0-10.834,4.852-10.834,10.835c0,0.451,0.038,0.894,0.09,1.329l-32.927,13.584
	c-1.982-2.553-5.071-4.202-8.552-4.202c-5.984,0-10.834,4.854-10.834,10.835c0,1.137,0.176,2.229,0.5,3.257l-63.494,40.989
	c-1.916-1.714-4.438-2.767-7.212-2.767c-5.983,0-10.834,4.853-10.834,10.836c0,5.982,4.851,10.833,10.834,10.833
	c2.778,0,5.304-1.056,7.219-2.77l63.483,40.895c-0.321,1.025-0.497,2.116-0.497,3.25c0,5.982,4.851,10.833,10.834,10.833
	c3.427,0,6.478-1.594,8.461-4.078l33.011,13.438c-0.051,0.42-0.083,0.844-0.083,1.278c0,5.986,4.853,10.836,10.834,10.836
	c5.981,0,10.836-4.85,10.836-10.836c0-0.438-0.033-0.868-0.088-1.296l33.203-13.572c1.979,2.569,5.078,4.23,8.572,4.23
	c5.984,0,10.838-4.851,10.838-10.833c0-1.153-0.189-2.259-0.518-3.301l62.66-40.812c1.914,1.695,4.43,2.737,7.184,2.737
	c5.984,0,10.832-4.851,10.832-10.833C323.809,138.107,318.961,133.255,312.977,133.255z M302.543,141.196h-38.154
	c-1.271-4.577-5.453-7.941-10.432-7.941c-0.438,0-0.861,0.032-1.283,0.084c0,0-13.012-33.295-12.82-33.465
	C239.854,99.874,302.582,141.06,302.543,141.196z M227.258,101.149c1.596,0.923,3.443,1.461,5.416,1.461
	c0.434,0,0.857-0.033,1.277-0.082l13.414,32.975c-1.84,1.413-3.207,3.397-3.838,5.693h-31.082
	c-0.58-6.779-3.215-12.974-7.309-17.927L227.258,101.149z M183.156,80.668c2.293-0.629,4.281-1.987,5.693-3.815l33.076,13.604
	c-0.047,0.433-0.088,0.872-0.088,1.319c0,1.924,0.508,3.73,1.391,5.295l-22.131,22.126c-4.932-4.2-11.123-6.963-17.941-7.614V80.668
	z M138.808,90.444l32.927-13.584c1.415,1.823,3.398,3.179,5.687,3.806v30.887c-6.896,0.542-13.192,3.206-18.214,7.377l-21.756-21.76
	c0.915-1.591,1.447-3.428,1.447-5.395C138.898,91.322,138.864,90.882,138.808,90.444z M128.065,102.61
	c1.932,0,3.744-0.515,5.314-1.399l21.763,21.761c-4.249,5.021-6.995,11.336-7.578,18.276h-31.072
	c-0.602-2.213-1.876-4.147-3.604-5.557l13.809-33.177C127.148,102.57,127.602,102.61,128.065,102.61z M120.853,99.844
	c0.18,0.16-13.215,33.541-13.215,33.541c-0.519-0.077-1.049-0.13-1.591-0.13c-4.998,0-9.194,3.39-10.443,7.993l-38.134,0.001
	C57.435,141.109,120.853,99.844,120.853,99.844z M57.363,147.34c0.036-0.116,38.253-0.357,38.253-0.357
	c1.27,4.577,5.452,7.941,10.431,7.941c0.545,0,1.075-0.055,1.598-0.131c0,0,13.381,33.282,13.2,33.441L57.363,147.34z
	 M133.414,186.883c-1.581-0.898-3.402-1.418-5.348-1.418c-0.467,0-0.921,0.037-1.372,0.096l-13.799-33.078
	c1.712-1.397,2.98-3.31,3.585-5.5h31.098c0.625,6.882,3.39,13.136,7.625,18.113L133.414,186.883z M177.421,207.335
	c-2.305,0.631-4.299,2.001-5.717,3.845l-32.918-13.4c0.066-0.487,0.112-0.979,0.112-1.48c0-1.953-0.522-3.779-1.427-5.363
	l21.803-21.803c5.008,4.137,11.282,6.777,18.147,7.318V207.335z M180.001,154.835c-5.983,0-10.834-4.853-10.834-10.835
	c0-5.983,4.851-10.834,10.834-10.834c5.985,0,10.834,4.851,10.834,10.834C190.836,149.982,185.986,154.835,180.001,154.835z
	 M222.066,197.595l-33.203,13.571c-1.418-1.837-3.41-3.2-5.707-3.834v-30.91c6.787-0.65,12.951-3.388,17.879-7.557l22.262,22.257
	c-0.838,1.539-1.316,3.303-1.316,5.177C221.98,196.736,222.016,197.167,222.066,197.595z M232.812,185.465
	c-2.025,0-3.912,0.565-5.531,1.534l-22.203-22.2c4.102-4.937,6.756-11.106,7.361-17.87h31.07c0.633,2.328,2.012,4.337,3.871,5.761
	l-13.283,32.857C233.674,185.497,233.25,185.465,232.812,185.465z M239.996,188.198c-0.191-0.167,12.699-33.353,12.699-33.353
	c0.414,0.046,0.83,0.078,1.262,0.078c4.998,0,9.195-3.392,10.443-7.995c0,0,38.209,0.309,38.256,0.457L239.996,188.198z"/>
</svg>
